<?xml version="1.0" encoding="utf-8"?>
<svg data-v-423bf9ae="" viewBox="0 0 77.5 90" class="iconLeft" xmlns="http://www.w3.org/2000/svg">
  <defs data-v-423bf9ae="">
    <linearGradient data-v-423bf9ae="" gradientTransform="rotate(25)" id="b5a677b0-1eae-452f-9289-7f5ffb489729" x1="0%" y1="0%" x2="100%" y2="0%">
      <stop data-v-423bf9ae="" offset="0" style="stop-color: rgb(0, 10, 104); stop-opacity: 1;"/>
      <stop data-v-423bf9ae="" offset="1" style="stop-color: rgb(0, 196, 238); stop-opacity: 1;"/>
    </linearGradient>
  </defs>
  <g data-v-423bf9ae="" id="df0e5c07-16ff-435f-80be-517d28046c90" transform="matrix(1.208638276844566,0,0,1.208638276844566,-3.3435695388289304,-2.581516201863174)" stroke="none" fill="url(#b5a677b0-1eae-452f-9289-7f5ffb489729)">
    <path d="M24.6 71.4c-5.4-.2-8.1-.3-13.6-.7-.7 0-1.2-.6-1.3-1.3-1.1-19.7-1.1-39.5 0-59.2 0-.7.6-1.2 1.3-1.3 16.1-1.2 32.3-1.2 48.4 0 .7.1 1.2.6 1.3 1.3.6 10 .9 20.1.8 30.1 0 0 0 .8.5 1.5 1.5 1.5 2.3 2.2 3.8 3.7 1.4 1.3 1.2-.8 1.2-.8.2-12.7-.3-25.5-1.3-38.2-.1-1.3-1.2-2.5-2.4-2.6C44.1 2.4 25.6 2.4 6.4 4c-1.2.1-2.2 1.3-2.3 2.6C2.6 28.8 2.6 50.7 4 73c.1 1.3 1.2 2.5 2.4 2.6 9.1 1 13.6 1.3 22.7 1.5 0 0 2.6.1 1.1-1.5-1.3-1.3-1.9-2-3.2-3.3.1 0-.7-.8-2.4-.9z"/>
    <path d="M26.9 65.9c-.6-.6-.6-1.7 0-2.3 1.6-1.6 2.3-2.4 3.9-4 .6-.6 1.6-.6 2.2 0 2.6 2.6 3.9 3.9 6.4 6.5.6.6 1.6.6 2.2 0 0 0 14.8-15.9 18-18.1.7-.5 1.7-.6 2.3-.1 1.6 1.5 2.4 2.2 3.9 3.7.6.6.6 1.5-.1 2.2C58.3 61.1 51 68.5 43.9 76c-1.9 1.6-5.4 1.7-7 .1-3.9-4-5.9-6.1-10-10.2zM55 20.7c0 .7-.5 1.2-1.2 1.2-12.6-.4-25.3-.4-37.9 0-.7 0-1.2-.5-1.2-1.2 0-1 0-1.5.1-2.4 0-.7.6-1.2 1.3-1.3 12.5-.5 25.1-.5 37.6 0 .7 0 1.2.6 1.3 1.3v2.4zM55.2 32.2c0 .7-.5 1.2-1.2 1.2-12.8-.1-25.5-.1-38.3 0-.7 0-1.2-.5-1.2-1.2v-2.4c0-.7.6-1.2 1.2-1.2 12.7-.3 25.4-.3 38.2 0 .7 0 1.2.6 1.2 1.2.1 1 .1 1.5.1 2.4zM55.3 43.7c0 .7-.6 1.2-1.2 1.2-12.8.1-25.5.1-38.3 0-.7 0-1.2-.6-1.2-1.2v-2.4c0-.7.6-1.2 1.2-1.2h38.3c.7 0 1.2.5 1.2 1.2v2.4z"/>
  </g>
</svg>