<svg data-v-423bf9ae="" xmlns="http://www.w3.org/2000/svg" viewBox="0 0 538 90" class="iconLeft"><!----><!----><!----><g data-v-423bf9ae="" id="4168f09c-3dd4-4a8b-909f-0a46a5bd93d3" fill="#000000" transform="matrix(5.8365760270947415,0,0,5.8365760270947415,91.4977848504794,-6.245136158813153)"><path d="M4.80 13.75L3.82 13.75L3.82 4.89L1.02 4.89L1.02 3.95L7.60 3.95L7.60 4.89L4.80 4.89L4.80 13.75ZM12.49 13.92L12.49 13.92L12.49 13.92Q11.33 13.92 10.65 13.29L10.65 13.29L10.65 13.29Q9.97 12.67 9.97 11.49L9.97 11.49L9.97 11.49Q9.97 10.33 10.74 9.73L10.74 9.73L10.74 9.73Q11.51 9.13 12.66 9.13L12.66 9.13L12.66 9.13Q13.73 9.13 14.67 9.63L14.67 9.63L14.67 9.03L14.67 9.03Q14.67 7.28 13.10 7.28L13.10 7.28L13.10 7.28Q12.05 7.28 10.84 8.05L10.84 8.05L10.56 7.21L10.56 7.21Q11.86 6.43 13.20 6.43L13.20 6.43L13.20 6.43Q13.64 6.43 14.01 6.53L14.01 6.53L14.01 6.53Q14.39 6.64 14.76 6.90L14.76 6.90L14.76 6.90Q15.13 7.15 15.36 7.67L15.36 7.67L15.36 7.67Q15.58 8.18 15.58 8.90L15.58 8.90L15.58 13.75L14.67 13.75L14.67 13.05L14.67 13.05Q13.71 13.92 12.49 13.92ZM12.59 13.06L12.59 13.06L12.59 13.06Q13.78 13.06 14.67 11.96L14.67 11.96L14.67 10.57L14.67 10.57Q13.79 9.98 12.75 9.98L12.75 9.98L12.75 9.98Q11.94 9.98 11.41 10.37L11.41 10.37L11.41 10.37Q10.88 10.75 10.88 11.49L10.88 11.49L10.88 11.49Q10.88 12.21 11.33 12.64L11.33 12.64L11.33 12.64Q11.77 13.06 12.59 13.06ZM21.49 13.92L21.49 13.92L21.49 13.92Q20.78 13.92 20.10 13.57L20.10 13.57L20.10 13.57Q19.42 13.23 18.94 12.67L18.94 12.67L19.63 12.07L19.63 12.07Q20.48 13.05 21.57 13.05L21.57 13.05L21.57 13.05Q22.22 13.05 22.64 12.78L22.64 12.78L22.64 12.78Q23.06 12.50 23.06 12.01L23.06 12.01L23.06 12.01Q23.06 11.70 22.91 11.46L22.91 11.46L22.91 11.46Q22.76 11.21 22.45 11.01L22.45 11.01L22.45 11.01Q22.13 10.81 21.89 10.70L21.89 10.70L21.89 10.70Q21.64 10.58 21.20 10.42L21.20 10.42L21.20 10.42Q20.66 10.21 20.34 10.04L20.34 10.04L20.34 10.04Q20.01 9.87 19.66 9.62L19.66 9.62L19.66 9.62Q19.31 9.37 19.14 9.02L19.14 9.02L19.14 9.02Q18.97 8.68 18.97 8.25L18.97 8.25L18.97 8.25Q18.97 7.43 19.64 6.93L19.64 6.93L19.64 6.93Q20.31 6.43 21.36 6.43L21.36 6.43L21.36 6.43Q22.83 6.43 23.77 7.52L23.77 7.52L23.13 8.06L23.13 8.06Q22.33 7.29 21.34 7.29L21.34 7.29L21.34 7.29Q20.68 7.29 20.29 7.55L20.29 7.55L20.29 7.55Q19.89 7.80 19.89 8.23L19.89 8.23L19.89 8.23Q19.89 8.44 20.00 8.62L20.00 8.62L20.00 8.62Q20.10 8.81 20.23 8.93L20.23 8.93L20.23 8.93Q20.36 9.04 20.64 9.19L20.64 9.19L20.64 9.19Q20.92 9.34 21.08 9.40L21.08 9.40L21.08 9.40Q21.25 9.46 21.62 9.60L21.62 9.60L21.62 9.60Q22.18 9.81 22.48 9.96L22.48 9.96L22.48 9.96Q22.78 10.11 23.19 10.39L23.19 10.39L23.19 10.39Q23.60 10.67 23.79 11.05L23.79 11.05L23.79 11.05Q23.98 11.44 23.98 11.96L23.98 11.96L23.98 11.96Q23.98 12.85 23.31 13.38L23.31 13.38L23.31 13.38Q22.64 13.92 21.49 13.92ZM33.15 13.75L32.07 13.75L29.76 9.18L28.39 10.64L28.39 13.75L27.41 13.75L27.41 4.12L28.39 3.64L28.39 9.48L31.07 6.59L32.20 6.59L30.45 8.46L33.15 13.75ZM39.30 13.75L38.32 13.75L38.32 4.89L35.52 4.89L35.52 3.95L42.10 3.95L42.10 4.89L39.30 4.89L39.30 13.75ZM49.14 6.43L49.14 6.43L49.14 6.43Q50.16 6.43 50.65 6.75L50.65 6.75L50.65 9.14L49.66 9.14L49.66 7.48L49.66 7.48Q49.41 7.43 49.07 7.43L49.07 7.43L49.07 7.43Q48.01 7.43 47.17 7.97L47.17 7.97L47.17 7.97Q46.34 8.51 46.34 9.45L46.34 9.45L46.34 12.87L48.48 12.87L48.48 13.75L43.83 13.75L43.83 12.87L45.32 12.87L45.32 7.48L43.83 7.48L43.83 6.59L46.28 6.59L46.28 7.85L46.28 7.85Q46.69 7.21 47.52 6.82L47.52 6.82L47.52 6.82Q48.34 6.43 49.14 6.43ZM58.46 12.92L58.46 12.92L58.46 12.92Q57.55 13.92 56.06 13.92L56.06 13.92L56.06 13.92Q54.56 13.92 53.66 12.93L53.66 12.93L53.66 12.93Q52.75 11.94 52.75 10.18L52.75 10.18L52.75 10.18Q52.75 8.43 53.66 7.43L53.66 7.43L53.66 7.43Q54.56 6.43 56.06 6.43L56.06 6.43L56.06 6.43Q57.55 6.43 58.46 7.41L58.46 7.41L58.46 7.41Q59.36 8.40 59.36 10.16L59.36 10.16L59.36 10.16Q59.36 11.91 58.46 12.92ZM56.06 13.03L56.06 13.03L56.06 13.03Q57.13 13.03 57.74 12.27L57.74 12.27L57.74 12.27Q58.34 11.51 58.34 10.16L58.34 10.16L58.34 10.16Q58.34 8.81 57.75 8.06L57.75 8.06L57.75 8.06Q57.16 7.31 56.06 7.31L56.06 7.31L56.06 7.31Q54.94 7.31 54.36 8.04L54.36 8.04L54.36 8.04Q53.77 8.78 53.77 10.18L53.77 10.18L53.77 10.18Q53.77 11.54 54.36 12.29L54.36 12.29L54.36 12.29Q54.95 13.03 56.06 13.03ZM65.03 13.75L64.34 13.75L61.63 6.59L62.64 6.59L64.47 11.52L64.47 11.52Q64.65 12.00 64.72 12.22L64.72 12.22L64.72 12.22Q64.79 12.00 64.97 11.52L64.97 11.52L66.77 6.59L67.75 6.59L65.03 13.75ZM76.37 9.88L76.37 9.88L76.37 9.88Q76.37 10.26 76.34 10.57L76.34 10.57L71.27 10.57L71.27 10.57Q71.41 11.72 71.99 12.36L71.99 12.36L71.99 12.36Q72.56 13.01 73.49 13.01L73.49 13.01L73.49 13.01Q74.40 13.01 75.19 12.45L75.19 12.45L75.73 13.10L75.73 13.10Q74.69 13.92 73.44 13.92L73.44 13.92L73.44 13.92Q71.97 13.92 71.11 12.83L71.11 12.83L71.11 12.83Q70.24 11.75 70.24 10.16L70.24 10.16L70.24 10.16Q70.24 8.40 71.11 7.41L71.11 7.41L71.11 7.41Q71.97 6.43 73.44 6.43L73.44 6.43L73.44 6.43Q74.72 6.43 75.54 7.30L75.54 7.30L75.54 7.30Q76.37 8.18 76.37 9.88ZM71.25 9.69L71.25 9.69L75.38 9.69L75.38 9.69Q75.36 8.39 74.78 7.85L74.78 7.85L74.78 7.85Q74.20 7.31 73.44 7.31L73.44 7.31L73.44 7.31Q72.41 7.31 71.86 7.94L71.86 7.94L71.86 7.94Q71.30 8.57 71.25 9.69Z"></path></g><defs data-v-423bf9ae=""><linearGradient data-v-423bf9ae="" gradientTransform="rotate(25)" id="b5a677b0-1eae-452f-9289-7f5ffb489729" x1="0%" y1="0%" x2="100%" y2="0%"><stop data-v-423bf9ae="" offset="0%" style="stop-color: rgb(0, 10, 104); stop-opacity: 1;"></stop><stop data-v-423bf9ae="" offset="100%" style="stop-color: rgb(0, 196, 238); stop-opacity: 1;"></stop></linearGradient></defs><g data-v-423bf9ae="" id="df0e5c07-16ff-435f-80be-517d28046c90" transform="matrix(1.208638276844566,0,0,1.208638276844566,-3.3435695388289304,-2.581516201863174)" stroke="none" fill="url(#b5a677b0-1eae-452f-9289-7f5ffb489729)"><path d="M24.6 71.4c-5.4-.2-8.1-.3-13.6-.7-.7 0-1.2-.6-1.3-1.3-1.1-19.7-1.1-39.5 0-59.2 0-.7.6-1.2 1.3-1.3 16.1-1.2 32.3-1.2 48.4 0 .7.1 1.2.6 1.3 1.3.6 10 .9 20.1.8 30.1 0 0 0 .8.5 1.5 1.5 1.5 2.3 2.2 3.8 3.7 1.4 1.3 1.2-.8 1.2-.8.2-12.7-.3-25.5-1.3-38.2-.1-1.3-1.2-2.5-2.4-2.6C44.1 2.4 25.6 2.4 6.4 4c-1.2.1-2.2 1.3-2.3 2.6C2.6 28.8 2.6 50.7 4 73c.1 1.3 1.2 2.5 2.4 2.6 9.1 1 13.6 1.3 22.7 1.5 0 0 2.6.1 1.1-1.5-1.3-1.3-1.9-2-3.2-3.3.1 0-.7-.8-2.4-.9z"></path><path d="M26.9 65.9c-.6-.6-.6-1.7 0-2.3 1.6-1.6 2.3-2.4 3.9-4 .6-.6 1.6-.6 2.2 0 2.6 2.6 3.9 3.9 6.4 6.5.6.6 1.6.6 2.2 0 0 0 14.8-15.9 18-18.1.7-.5 1.7-.6 2.3-.1 1.6 1.5 2.4 2.2 3.9 3.7.6.6.6 1.5-.1 2.2C58.3 61.1 51 68.5 43.9 76c-1.9 1.6-5.4 1.7-7 .1-3.9-4-5.9-6.1-10-10.2zM55 20.7c0 .7-.5 1.2-1.2 1.2-12.6-.4-25.3-.4-37.9 0-.7 0-1.2-.5-1.2-1.2 0-1 0-1.5.1-2.4 0-.7.6-1.2 1.3-1.3 12.5-.5 25.1-.5 37.6 0 .7 0 1.2.6 1.3 1.3v2.4zM55.2 32.2c0 .7-.5 1.2-1.2 1.2-12.8-.1-25.5-.1-38.3 0-.7 0-1.2-.5-1.2-1.2v-2.4c0-.7.6-1.2 1.2-1.2 12.7-.3 25.4-.3 38.2 0 .7 0 1.2.6 1.2 1.2.1 1 .1 1.5.1 2.4zM55.3 43.7c0 .7-.6 1.2-1.2 1.2-12.8.1-25.5.1-38.3 0-.7 0-1.2-.6-1.2-1.2v-2.4c0-.7.6-1.2 1.2-1.2h38.3c.7 0 1.2.5 1.2 1.2v2.4z"></path></g><!----></svg>